<svg xmlns="http://www.w3.org/2000/svg" xml:space="preserve" style="enable-background:new 0 0 1290 2796" viewBox="0 0 1290 2796"><g style="opacity:.77"><path d="M1133.478 1923.108c-184.783-102.771-391.06-136.714-587.103-101.982-196.361 33.717-382.499 136.115-534.407 282.761-7.117 6.798-14.134 13.724-21.102 20.71v112.777c.57-.575 1.125-1.16 1.696-1.735 139.324-143.849 329.074-257.327 530.249-293.167 200.698-38.306 412.848 1.017 586.252 105.959 71.374 41.667 136.253 94.322 192.977 152.045v-161.27c-53.496-44.915-109.946-83.97-168.562-116.098z" style="fill:#f6df83"/><path d="M1130.55 2127.262c-204.883-149.731-466.639-201.587-656.978-145.521-185.029 47.533-344.991 155.012-470.471 287.119a1189.882 1189.882 0 0 0-12.236 13.035v81.243a1035.75 1035.75 0 0 1 17.38-18.27c110.968-114.928 246.036-200.871 387.243-244.906 141.149-44.836 288.444-47.763 422.601-15.067 134.513 31.928 255.887 99.479 353.41 177.911 49.601 40.277 92.7 80.791 130.539 120.131v-106.671c-51.68-55.131-109.026-106.445-171.488-149.004z" style="fill:#f9aad5"/><path d="M1125.726 1875.953c-185.49-100.267-392.293-133.317-589.735-98.27-197.725 34.071-386.099 136.244-541.322 284.024-1.276 1.203-2.532 2.435-3.803 3.644v88.402c137.05-133.04 311.715-236.266 495.861-276.448 198.089-45.487 407.19-17.725 581.382 72.876 87.817 44.116 166.843 104.048 233.932 170.41V1995.06c-55.87-46.279-114.918-86.385-176.315-119.107z" style="fill:#b6f4bf"/><path d="M1234.776 2127.038c-98.299-83.406-227.509-162.314-384.138-199.59-155.73-37.32-338.878-33.007-524.308 48.997-129.841 56.866-241.452 140.421-335.464 237.933v69.191c6.354-6.821 12.774-13.587 19.305-20.252 127.044-130.844 288.058-230.732 465.079-269.53 176.528-39.583 369.07-18.084 547.863 75.719 99.066 51.312 193.888 124.888 278.927 217.413v-97.786c-20.624-20.676-43.006-41.521-67.264-62.095z" style="fill:#fcc889"/><path d="M1108.755 2167.908c-177.189-121.051-387.721-166.971-551.373-138.416-242.605 38.855-423.133 167.249-551.857 302.284a1262.542 1262.542 0 0 0-14.659 15.863v56.666c13.293-15.375 27.016-30.372 41.176-44.902 115.405-120.137 259.561-209.28 410.656-250.253 151.007-42.016 308.965-35.861 450.039 10.616 141.562 45.433 266.242 131.189 361.94 224.322 15.935 15.535 31.776 32.054 47.363 49.313v-60.523c-58.258-62.304-123.211-119.383-193.285-164.97z" style="fill:#88c4fe"/><path d="M1264.905 2342.027c-124.997-125.117-284.787-218.571-452.374-253.323-167.342-36.387-342.481-14.07-492.531 54.601-103.622 46.225-216.94 124.466-315.23 233.088a1025.195 1025.195 0 0 0-13.905 15.488v33.351c12.598-14.459 25.591-28.572 38.992-42.246 111.773-115.73 251.377-201.351 397.213-240.97 145.785-40.644 297.813-35.288 433.345 7.388 136.039 41.7 255.583 120.717 348.093 204.907 27.952 25.446 60.391 59.542 93.531 99.862v-73.614a1264.114 1264.114 0 0 0-37.134-38.532z" style="fill:#dad6ff"/></g><path d="M1302.04 1032.341c-12.903 32.005-7.973 69.19-40.69 104.659-35.964 38.965-166.025-81.635-207.401-48.708-41.374 32.905-14.408 166.198-88.821 174.409-74.433 8.188-72.586-32.311-118.579-22.826-45.994 9.507-29.212 16.085-69.794 31.63-40.582 15.545-103.095 12.694-103.095 12.694-16.218 9.962-16.895 24.332-7.823 35.448l.021.001c10.587 12.99 34.523 21.547 62.527 13.444 51.954-15.026 120.956-29.275 206.212-25.386 85.257 3.889 130.986.183 189.145-26.187 53.86-24.391 107.511-43.771 178.297-43.64v-205.538z" style="fill:#fff"/><path d="M1302.04 1204.467c-49.261 12.024-62.554-1.773-108.217 24.448-49.805 28.579-103.826 16.866-109.328 4.262-5.479-12.603-21.731 11.362-22.293 23.69-.562 12.306-62.332 37.278-116.915 37.871-54.604.592-87.317-13.231-130.357.242-43.061 13.472-76.896 24.26-110.312 25.841-10.834.497-24.819-.097-38.761-1.173 10.587 12.99 34.523 21.547 62.527 13.444 51.954-15.026 120.956-29.275 206.212-25.386 85.257 3.889 130.986.183 189.145-26.187 53.86-24.391 107.511-43.771 178.297-43.64v-33.412z" style="fill:#eaf3f4"/><linearGradient id="a" x1="646.453" x2="646.453" y1="1928.449" y2="2961.028" gradientUnits="userSpaceOnUse"><stop offset="0" style="stop-color:#c6edf6"/><stop offset="1" style="stop-color:#5d6ba9"/></linearGradient><path d="M1150.235 2573.035c-58.729 18.827-135.173-40.263-168.646-143.755-6.399-19.827-16.946-37.028-30.251-51.49-57.512-62.611-165.286-73.541-209.554-27.099-9.886 10.37-20.646 22.274-31.962 34.875-50.356 56.133-111.239 125.964-154.377 137.67-36.501 9.915-79.282-37.688-145.163-75.32-29.258-16.71-63.029-31.423-102.599-38.156-43.841-7.456-82.315 8.068-116.128 32.713-65.425 47.756-115.847 122.888-149.735 144.693-8.047 5.178-27.624 12.523-50.954 19.017v159.754H1302.04v-391.219c-60.879 98.935-121.376 188.557-151.805 198.317z" style="fill:url(#a)"/><path d="M951.338 2377.791c-2.674 2.439-6.246 4.247-11.099 4.989-24.286 3.696-37.27-13.55-58.852-9.843-21.595 3.69-22.073 27.024-64.904 25.81-42.874-1.228-39.966-23.354-61.46-22.12-10.623.617-29.219 4.836-45.2 8.939 11.316-12.601 22.076-24.505 31.962-34.875 44.267-46.441 152.041-35.511 209.553 27.1zM410.282 2447.917c-7.313 2.153-14.57 3.064-21.037 2.001-29.489-4.846-48.254-7.265-61.174 3.642-12.89 10.881-50.187 9.67-61.476-4.843-11.326-14.573-21.971-13.354-53.676-7.281-8.785 1.687-15.796 1.783-21.364 1.037 33.813-24.645 72.287-40.168 116.128-32.713 39.57 6.734 73.342 21.447 102.599 38.157z" style="fill:#e1f6ff"/><path d="M1301.987 2736.391a836205.551 836205.551 0 0 1-208.185-10.999l-1.235-.065.322-1.194c.303-1.12 30.751-112.814 73.149-186.898 25.23-44.032 49.709-66.359 72.755-66.359 2.146 0 4.309.196 6.428.583 32.988 6.004 48.059 31.831 57.502 53.661l.316.748v210.579l-1.052-.056z" style="fill:#faa9d5"/><path d="M1238.793 2471.875c2.076 0 4.161.186 6.249.566 30.336 5.521 45.886 27.931 56.764 53.075.079.184.155.371.234.555v209.321c-126.601-6.674-208.184-10.999-208.184-10.999s30.226-111.833 73.052-186.662c21.54-37.595 46.236-65.856 71.885-65.856m0-2c-23.431 0-48.2 22.496-73.621 66.862-42.463 74.195-72.944 186.013-73.247 187.134l-.645 2.388 2.47.131s81.583 4.324 208.185 10.999l2.105.111v-211.84l-.162-.378-.104-.248-.131-.311c-9.544-22.061-24.789-48.163-58.242-54.25a36.954 36.954 0 0 0-6.608-.598z"/><path d="M1194.23 2548.327c-7.713 0-17.077-3.277-27.834-9.742a1.002 1.002 0 0 1-.353-1.354c25.229-44.033 49.706-66.359 72.753-66.359 2.146 0 4.31.196 6.43.583 32.987 6.003 48.058 31.83 57.502 53.659.131.303.104.65-.071.93-5.468 8.696-12.216 13.106-20.054 13.106-2.123 0-4.351-.33-6.621-.98-11.455-3.269-20.855-9.385-28.408-14.3-6.946-4.52-12.944-8.423-17.936-8.423-5.775 0-10.351 5.345-14.838 17.33-3.874 10.319-10.794 15.55-20.57 15.55z" style="fill:#fff"/><path d="M1238.798 2471.871c2.076 0 4.162.186 6.25.566 30.336 5.521 45.886 27.931 56.763 53.074-4.634 7.371-10.854 12.638-19.207 12.638-1.991 0-4.105-.3-6.346-.941-21.953-6.265-35.711-22.762-46.619-22.762-5.795 0-10.787 4.658-15.774 17.979-4.123 10.981-11.375 14.901-19.634 14.901-8.822 0-18.793-4.476-27.319-9.599 21.541-37.595 46.236-65.856 71.886-65.856m0-2c-23.431 0-48.2 22.496-73.621 66.862a2 2 0 0 0 .705 2.708c10.914 6.56 20.452 9.885 28.349 9.885 10.235 0 17.47-5.45 21.506-16.198 4.32-11.538 8.607-16.682 13.902-16.682 4.694 0 10.578 3.828 17.39 8.261 7.609 4.952 17.079 11.114 28.681 14.424 2.359.676 4.679 1.018 6.895 1.018 8.205 0 15.237-4.567 20.9-13.574a2.003 2.003 0 0 0 .143-1.859c-9.543-22.059-24.787-48.159-58.241-54.248a37.073 37.073 0 0 0-6.609-.597z"/><path d="M138.125 2665.055c-.668 0-1.153-.008-1.441-.021-4.711-.237-9.042-3.827-10.777-8.932-1.375-4.048-2.966-14.829 11.922-27.505 5.761-4.904 12.905-7.391 21.234-7.391 14.241 0 27.591 7.167 31.307 9.338 1.734-3.705 8.496-15.756 25.583-22.592 7.856-3.142 15.419-4.735 22.479-4.735 11.379 0 18.493 4.072 21.372 6.142.839-5.292 4.611-20.193 20.441-20.193.428 0 .867.011 1.313.033 16.784.845 29.308 12.815 33.123 16.914 1.7-4.755 7.675-17.599 22.608-17.599 3.142 0 6.534.575 10.083 1.709 22.394 7.153 26.36 20.919 27.058 25.225 1.78-.535 5.365-1.41 9.761-1.41 5.896 0 14.33 1.648 21.028 9.502 2.96 3.47 4.205 7.386 3.702 11.64-1.35 11.405-14.748 21.273-15.317 21.688l-.248.181-.306.01c-2.327.08-232.973 7.998-254.922 7.998l-.003-.002z" style="fill:#faa9d5"/><path d="M337.29 2589.514c2.894 0 6.142.499 9.779 1.661 25.829 8.251 26.509 25.608 26.509 25.608s4.532-1.747 10.613-1.746c6.2 0 14.011 1.816 20.267 9.15 12.392 14.528-11.443 31.87-11.443 31.87s-232.728 7.997-254.889 7.997a31.73 31.73 0 0 1-1.391-.021c-9.817-.493-18.82-17.168 1.743-34.675 6.23-5.304 13.491-7.152 20.586-7.152 16.323 0 31.77 9.784 31.77 9.784s5.736-15.207 25.492-23.109c8.619-3.448 15.99-4.665 22.108-4.664 14.702.001 22.145 7.035 22.145 7.035s1.238-21.089 19.667-21.087c.412 0 .834.011 1.263.032 19.633.987 33.594 17.894 33.594 17.894s4.528-18.578 22.187-18.577m0-2c-14.176-.001-20.601 11.067-22.972 16.779-4.867-4.917-16.938-15.3-32.709-16.093a27.298 27.298 0 0 0-1.364-.035c-8.347-.001-14.757 4.029-18.536 11.655-1.423 2.872-2.207 5.727-2.633 7.852-3.575-2.245-10.464-5.454-20.642-5.454-7.186 0-14.874 1.617-22.851 4.807-16.106 6.442-23.242 17.483-25.637 22.125-4.753-2.658-17.417-8.944-30.882-8.944-8.574 0-15.936 2.567-21.882 7.63-15.355 13.073-13.661 24.347-12.22 28.588 1.865 5.49 6.556 9.351 11.673 9.608.311.016.799.023 1.492.023 21.942 0 252.63-7.918 254.958-7.998l.612-.021.496-.361c.584-.425 14.322-10.545 15.722-22.379.537-4.542-.786-8.716-3.934-12.406-5.497-6.445-13.032-9.852-21.788-9.853-3.763 0-6.96.627-8.991 1.158-1.21-5.41-6.287-18.141-27.524-24.925-3.647-1.165-7.142-1.756-10.388-1.756z"/><path d="M-9.134 2793.807a1 1 0 0 1-1-1v-132.261a1 1 0 0 1 .924-.997c73-5.594 143.268-10.79 208.854-15.442 87.948-6.244 169.86-11.676 243.463-16.146l.114-.002c101.447-6.189 190.644-10.799 265.052-13.699 151.463-5.909 351.234-9.101 593.766-9.486h.002a.998.998 0 0 1 1 1v187.033a1 1 0 0 1-1 1H-9.134z" style="fill:#e2f2a5"/><path d="M1302.04 2605.773v187.033H-9.134v-132.26c70.232-5.382 140.261-10.576 208.849-15.443 84.079-5.969 165.974-11.439 243.452-16.145h.053c96.773-5.903 186.601-10.641 265.09-13.7 168.218-6.562 378.804-9.143 593.73-9.485m0-2h-.003c-242.53.385-442.315 3.577-593.803 9.487-74.397 2.9-163.578 7.509-265.075 13.699-.038 0-.075.001-.112.003-73.673 4.475-155.589 9.907-243.473 16.146-65.645 4.658-135.916 9.854-208.861 15.444a2 2 0 0 0-1.847 1.994v132.26a2 2 0 0 0 2 2H1302.04a2 2 0 0 0 2-2v-187.033a1.998 1.998 0 0 0-2-2z"/><path d="M865.02 2778.318s-281.459-86.16-606.396-131.402c52.524-5.969 103.685-11.439 152.085-16.145h.033c225.859 12.088 541.934 42.398 651.904 118.383 178.173 123.105-197.626 29.164-197.626 29.164z" style="fill:#fce9b9"/><path d="M1302.04 2649.494c-167.033 13.19-322.912 29.031-386.372 45.585-163.575 42.672 87.714 16.594 87.714 16.594s131.164-15.548 298.659-33.728v-28.451z" style="fill:#fce9b9"/><path d="M1194.03 2724.341s-15.329-17.519-6.57-30.658 21.899 4.38 21.899 4.38 0-26.278 17.519-32.848 17.519 21.899 17.519 21.899 13.139-19.709 26.278-19.709 8.76 24.089 8.76 24.089 24.089-19.709 37.228 0l13.139 19.709s21.899-17.519 35.038 0c13.139 17.519 6.57 32.848 0 32.848-6.57-.002-170.81-19.71-170.81-19.71z" style="fill:#faa9d5;stroke:#000;stroke-width:2;stroke-miterlimit:10"/><path d="M14.891 2746.111a1 1 0 0 1-.539-.158c-.593-.38-14.556-9.432-16.583-20.736-.756-4.217.254-8.2 3.001-11.84 3.466-4.591 8.13-6.919 13.864-6.919 7.873 0 15.587 4.394 18.915 6.562-.1-6.736 1.369-27.993 22.98-36.346 3.485-1.348 6.772-2.03 9.768-2.03 14.132 0 18.593 14.942 19.79 20.733 4.542-5.487 19.334-21.8 36.079-23.646a21.399 21.399 0 0 1 2.331-.133c4.327 0 7.794 1.469 10.307 4.366 4.725 5.449 4.764 14.451 4.491 18.589 4.989-3.303 19.528-11.976 34.562-11.976 7.852 0 14.664 2.406 20.246 7.151l21.237 18.052c3.242-2.2 17.823-11.469 33.408-11.469 7.318 0 13.791 2.08 19.239 6.185 15.617 11.767 14.671 22.624 13.539 26.746-1.427 5.199-5.537 9.039-10.226 9.557-9.7 1.069-246.317 7.058-256.385 7.312h-.024z" style="fill:#e2f2a5"/><path d="M124.499 2672.598c17.029 0 13.596 23.997 13.596 23.997s17.71-13.019 35.764-13.019c6.793 0 13.633 1.842 19.599 6.914l21.823 18.551s16.285-11.729 33.469-11.73c6.349 0 12.818 1.6 18.637 5.984 21.569 16.25 13.576 33.433 3.806 34.51-9.77 1.078-256.301 7.307-256.301 7.307s-24.826-15.891-13.322-31.132c3.672-4.865 8.371-6.521 13.065-6.521 10.012 0 20.008 7.531 20.008 7.531s-3.045-27.608 22.247-37.383c3.552-1.373 6.671-1.963 9.408-1.963 16.747 0 19.182 22.097 19.182 22.097s17.256-22.861 36.796-25.016a20.217 20.217 0 0 1 2.223-.127m0-2c-.784 0-1.606.047-2.441.139-15.685 1.73-29.626 15.795-35.388 22.413-2.105-8.43-8.023-19.506-20.372-19.506-3.12 0-6.527.706-10.129 2.098-13.824 5.343-19.488 15.813-21.805 23.656-1.373 4.647-1.761 8.894-1.827 11.815-3.933-2.352-10.842-5.754-17.902-5.754-6.064 0-10.997 2.462-14.662 7.316-2.922 3.872-3.995 8.117-3.188 12.619 2.103 11.73 16.419 21.013 17.028 21.403a2 2 0 0 0 1.078.315h.051c10.07-.255 246.727-6.244 256.469-7.318 5.093-.562 9.545-4.695 11.08-10.286 1.186-4.319 2.204-15.674-13.902-27.809-5.625-4.238-12.3-6.387-19.838-6.387-14.999.001-29.055 8.407-33.337 11.219l-20.662-17.564c-5.768-4.903-12.798-7.39-20.894-7.39-13.89 0-27.334 7.251-33.484 11.095.095-4.739-.517-12.409-4.813-17.363-2.711-3.126-6.433-4.711-11.062-4.711z"/><path d="M22.693 2202.262S2.822 2098.324 1.294 2093.738c-1.529-4.586-7.643-7.643-6.114 12.228 1.529 19.87 6.114 99.353 6.114 99.353" style="fill:#fff;stroke:#000;stroke-width:2;stroke-linecap:round;strokeLinejoin:round;stroke-miterlimit:10"/><path d="m2.179 2291.081 1.972 8.176c7.353 30.483 14.361 66.654 21.424 110.58 3.997 24.927 7.623 49.805 10.821 71.754 8.107 55.636 14.511 99.58 21.793 112.046 4.335 7.432 9.652 11.199 15.801 11.198 17.498-.003 43.048-29.561 75.942-87.852 5.075-8.999 10.246-18.513 15.807-29.086 9.03-17.155 19.774-25.854 31.935-25.854.452 0 .903.012 1.355.037 27.969 1.539 54.381 48.528 63.765 93.066a466.836 466.836 0 0 0 6.371 26.27 515.722 515.722 0 0 0 10.927 35.094c19.369 55.193 42.134 90.826 59.412 92.991.708.088 1.405.133 2.07.133 10.998-.002 15.27-12.264 20.215-26.462 1.616-4.64 3.288-9.438 5.289-14.072 4.676-10.809 12.145-23.597 28.539-26.58a18.086 18.086 0 0 1 3.24-.294c11.483 0 23.62 11.021 36.074 32.756 20.797 36.339 35.726 91.105 35.875 91.654l.323 1.194-1.235.065c-2.474.131-249.931 13.245-466.662 24.464l-1.052.054v-501.332z" style="fill:#faa9d5"/><path d="M3.179 2299.491c8.498 35.233 15.455 73.479 21.409 110.505 13.893 86.639 22.379 166.411 32.739 184.146 4.737 8.121 10.382 11.693 16.665 11.693 21.78 0 51.196-42.964 76.814-88.36 5.487-9.731 10.801-19.568 15.821-29.112 9.384-17.828 20.154-25.319 31.049-25.319.434 0 .868.012 1.302.036h.014c26.26 1.446 52.976 45.521 62.827 92.273a466.997 466.997 0 0 0 6.385 26.328 517.485 517.485 0 0 0 10.949 35.161c16.998 48.439 40.368 91.163 60.231 93.652.76.095 1.49.141 2.195.141 15.458 0 18.229-22.167 26.421-41.138 5.327-12.314 12.943-23.289 27.8-25.993a16.983 16.983 0 0 1 3.061-.277c12.561.001 24.657 13.842 35.206 32.253 20.974 36.647 35.777 91.417 35.777 91.417s-247.424 13.116-466.661 24.464v-491.87m-2.004-16.822v510.797l2.103-.109c216.731-11.219 464.189-24.333 466.664-24.464l2.47-.131-.645-2.388c-.149-.55-15.112-55.44-35.972-91.889-12.645-22.069-25.074-33.259-36.941-33.26-1.142 0-2.292.104-3.42.31-16.86 3.068-24.502 16.13-29.277 27.167-2.016 4.669-3.694 9.485-5.316 14.142-4.82 13.838-8.983 25.789-19.27 25.789-.625 0-1.28-.042-1.948-.125-8.62-1.08-18.902-10.99-29.731-28.656-9.968-16.261-19.947-38.279-28.859-63.674a514.3 514.3 0 0 1-10.906-35.025 465.107 465.107 0 0 1-6.357-26.215c-4.912-23.312-14.223-46.57-25.545-63.811-12.255-18.661-26.151-29.332-39.129-30.046l-.055-.003h-.015c-.45-.023-.906-.036-1.354-.036-12.561 0-23.603 8.878-32.819 26.388-5.472 10.403-10.785 20.181-15.793 29.061-32.705 57.956-57.963 87.343-75.071 87.343-5.85 0-10.736-3.5-14.937-10.701-7.184-12.299-13.576-56.158-21.668-111.685-3.199-21.954-6.825-46.836-10.824-71.769-7.067-43.95-14.08-80.146-21.439-110.657l-3.946-16.353z"/><path d="M279.15 2616.842c-11.31 8.017-28.322 5.086-44.945-4.885-35.268-21.148-59.361-103.852-58.183-109.299 4.538-20.894 12.823-33.582 22.955-39.578h.013c26.26 1.446 52.976 45.521 62.827 92.273a467.84 467.84 0 0 0 6.384 26.328 517.485 517.485 0 0 0 10.949 35.161z" style="fill:#ffbbe4"/><path d="m63.514 2245.098-98.719-8.813a1 1 0 0 1-.872-1.273c.123-.43 12.726-43.032 45.032-43.032 44.372 0 55.52 51.4 55.627 51.92a1 1 0 0 1-1.068 1.198z" style="fill:#fff"/><path d="M8.955 2192.979c44.071 0 54.648 51.123 54.648 51.123l-98.72-8.814c.001 0 12.145-42.309 44.072-42.309m0-2c-13.756 0-26.092 7.624-35.674 22.047-7.116 10.712-10.192 21.265-10.32 21.709a1.997 1.997 0 0 0 1.745 2.544l98.72 8.814a2.003 2.003 0 0 0 1.671-.661 1.997 1.997 0 0 0 .465-1.736c-.111-.537-2.814-13.29-11.07-26.232-11.054-17.326-26.8-26.485-45.537-26.485z"/><path d="M260.7 2586.455c-1.898 0-3.715-.714-5.402-2.121-6.275-5.227-9.761-11.699-12.563-16.899-2.381-4.421-4.262-7.912-6.608-7.912-.88 0-1.891.438-3.091 1.34-6.373 4.774-13.752 9.867-20.711 9.867-6.312.001-10.938-4.274-13.751-12.706-2.711-8.149-3.352-13.147-3.776-16.454-.638-4.98-.65-5.075-7.222-6.386a14.363 14.363 0 0 0-2.794-.296c-3.292 0-5.445 1.396-7.725 2.875-2.469 1.602-5.023 3.259-9.054 3.259-1.938 0-4.029-.383-6.394-1.172-5.282-1.769-9.248-9.232-11.788-22.185a1 1 0 0 1 .11-.684c5.012-8.888 10.331-18.673 15.807-29.086 9.031-17.152 19.778-25.85 31.944-25.85 12.845 0 26.746 10.215 39.142 28.765 11.526 17.249 20.992 40.698 25.97 64.334a466.527 466.527 0 0 0 6.371 26.271.999.999 0 0 1-.275.987c-2.823 2.69-5.578 4.053-8.19 4.053z" style="fill:#fff"/><path d="M197.681 2463.045c26.664-.006 54.119 44.753 64.133 92.306a467.6 467.6 0 0 0 6.384 26.327c-2.442 2.327-4.975 3.777-7.499 3.777-1.599 0-3.194-.581-4.762-1.889-11.979-9.979-13.786-25.043-19.812-25.043-1.071 0-2.274.476-3.692 1.54-5.409 4.053-13.161 9.667-20.11 9.667-5.122 0-9.809-3.05-12.802-12.023-7.04-21.161 0-21.161-11.752-23.503a15.157 15.157 0 0 0-2.989-.316c-7.225-.001-9.358 6.134-16.779 6.134-1.705 0-3.688-.323-6.077-1.12-5.715-1.914-9.102-11.123-11.123-21.429 5.488-9.731 10.801-19.568 15.821-29.112 9.388-17.83 20.16-25.313 31.059-25.316m.006-2v2l-.001-2c-12.573.003-23.618 8.88-32.833 26.384-5.473 10.407-10.787 20.184-15.793 29.061-.234.415-.312.9-.221 1.367 2.651 13.519 6.724 21.023 12.45 22.94 2.471.823 4.665 1.223 6.712 1.223 4.327 0 7.128-1.817 9.598-3.42 2.245-1.457 4.184-2.714 7.18-2.714.807 0 1.681.093 2.597.277 2.995.597 4.853 1.063 5.493 1.679.483.465.644 1.579.936 3.853.429 3.345 1.077 8.401 3.818 16.642 2.964 8.887 7.91 13.392 14.7 13.392 7.266 0 14.809-5.196 21.31-10.067.994-.747 1.856-1.14 2.492-1.14 1.749 0 3.593 3.423 5.728 7.385 2.842 5.276 6.38 11.843 12.804 17.194 1.87 1.561 3.904 2.353 6.042 2.353 2.877 0 5.865-1.457 8.878-4.329a2 2 0 0 0 .55-1.974 465.34 465.34 0 0 1-6.357-26.214c-9.718-46.152-37.094-93.892-66.083-93.892z"/><path d="M420.681 2681.18c-5.021 0-8.571-2.674-10.55-7.946-2.707-7.23-5.05-8.157-6.79-8.157-2.293 0-5.172 1.873-8.506 4.042-3.728 2.426-8.367 5.444-14.051 7.067a12.331 12.331 0 0 1-3.382.499c-4.026 0-7.476-2.239-10.253-6.657a1.002 1.002 0 0 1-.071-.93c4.676-10.808 12.146-23.596 28.539-26.579a18.086 18.086 0 0 1 3.24-.294c11.483 0 23.62 11.021 36.074 32.756a.999.999 0 0 1-.353 1.354c-5.349 3.214-10.024 4.844-13.897 4.845z" style="fill:#fff"/><path d="M398.855 2643.225c12.562-.001 24.656 13.841 35.206 32.253-4.175 2.509-9.059 4.701-13.379 4.701-4.045 0-7.596-1.92-9.616-7.298-2.442-6.524-4.887-8.805-7.725-8.805-5.342-.001-12.08 8.08-22.832 11.147-1.098.314-2.133.461-3.108.461-4.091 0-7.137-2.58-9.407-6.19 5.327-12.314 12.943-23.289 27.8-25.993a17.173 17.173 0 0 1 3.061-.276m.002-2v2-2h-.002c-1.142 0-2.293.104-3.419.31-16.86 3.068-24.502 16.13-29.277 27.167a2 2 0 0 0 .142 1.858c2.973 4.728 6.707 7.125 11.1 7.125 1.18 0 2.411-.181 3.659-.538 5.827-1.663 10.537-4.728 14.32-7.19 3.2-2.082 5.964-3.881 7.96-3.881 1.306 0 3.334.778 5.853 7.506 2.668 7.106 7.72 8.597 11.489 8.597 4.055 0 8.903-1.678 14.409-4.987a2 2 0 0 0 .705-2.708c-12.644-22.069-25.072-33.259-36.939-33.259z"/><path d="m145.841 2679.557-70.519 20.226-113.551 17.269-31.537-450.671-.838-12.01s28.897-23.856 40.994-28.702c12.097-4.859 143.347 12.352 143.49 24.103.142 11.751 31.961 429.785 31.961 429.785z" style="fill:#fee67f;stroke:#000;stroke-width:2;stroke-linecap:round;strokeLinejoin:round;stroke-miterlimit:10"/><path d="M-46.953 2745.485a.999.999 0 0 1-.998-.933l-31.486-462.692a1 1 0 0 1 .348-.828c1.146-.978 28.183-24.003 39.888-28.848 1.484-.616 4.426-.916 8.991-.916 15.733 0 48.096 3.63 76.952 8.631 15.341 2.658 28.301 5.471 37.478 8.133 14.916 4.326 16.671 7.337 16.694 9.225.141 11.586 30.761 425.554 31.07 429.733a1 1 0 0 1-.713 1.033l-68.168 20.197a.927.927 0 0 1-.129.029l-109.771 17.224a1.034 1.034 0 0 1-.156.012z" style="fill:#dce3f4"/><path d="M-30.211 2252.268c31.377-.001 129.999 14.642 130.125 25.001.143 11.751 31.073 429.795 31.073 429.795l-68.168 20.198-109.771 17.223-30.671-450.682-.815-12.011s27.927-23.844 39.621-28.685c1.384-.574 4.389-.839 8.606-.839m.003-2v2l-.001-2c-6.261 0-8.35.567-9.376.993-11.848 4.905-39.002 28.029-40.152 29.011a2 2 0 0 0-.697 1.657l.815 12.01 30.671 450.682a1.998 1.998 0 0 0 2.305 1.84l109.771-17.224c.087-.014.173-.033.258-.058l68.168-20.198a1.999 1.999 0 0 0 1.426-2.065c-.309-4.18-30.927-418.116-31.068-429.672-.031-2.541-2.124-5.737-17.414-10.173-9.212-2.672-22.208-5.493-37.584-8.158-28.902-5.009-61.338-8.645-77.122-8.645z"/><path d="M130.987 2707.064 9.012 2727.916C-.87 2615.343-31.373 2285.25-31.565 2269.47c-.174-14.334-31.292 11.33-46.059 24.333l-.815-12.01s27.927-23.845 39.621-28.685c11.694-4.854 138.59 12.41 138.732 24.161.143 11.751 31.073 429.795 31.073 429.795z" style="fill:#fff"/><path d="m115.609 2683.756-14.721 5.38c-5.408-74.18-24.503-325.521-37.265-354.742-14.997-34.35-30.982 19.933-30.63 155.953.25 93.458 3.556 177.872 5.597 221.549l-15.465 5.659s-7.922-116.849-5.931-252.892c1.991-136.059 26.622-190.414 48.152-156.119 21.53 34.278 50.263 375.212 50.263 375.212z" style="fill:#fee67f;stroke:#000;stroke-width:2;stroke-linecap:round;strokeLinejoin:round;stroke-miterlimit:10"/><path d="M-88.085 2806.77a1 1 0 0 1-1-1v-160.164c0-.188.053-.372.153-.532 7.172-11.422 19.225-25.037 35.916-25.037 1.491 0 3.013.109 4.526.325 27.379 3.912 40.46 36.746 44.268 48.389 1.942-8.392 8.633-26.959 30.489-34.244 3.275-1.092 6.504-1.646 9.595-1.646 17.121 0 26.695 16.876 30.141 24.488 1.562-10.324 8.07-37.806 33.292-41.687a19.76 19.76 0 0 1 2.988-.229c12.445 0 24.628 11.688 36.213 34.742 6.872 13.674 11.476 27.494 13.035 32.449 3.014-3.83 11.404-12.971 22.798-12.971 3.419 0 6.844.846 10.181 2.514 19.061 9.531 28.363 80.036 28.75 83.033a1 1 0 0 1-.826 1.114l-300.355 50.441a.901.901 0 0 1-.164.015z" style="fill:#e2f2a5"/><path d="M102.285 2616.433c29.018.009 48.874 68.381 48.874 68.381s9.439-14.163 23.173-14.161c3.051 0 6.316.7 9.734 2.409 18.804 9.402 28.206 82.266 28.206 82.266l-300.355 50.441v-160.164c7.468-11.894 19.15-24.569 35.068-24.569 1.427 0 2.89.102 4.385.316 32.907 4.701 44.659 51.71 44.659 51.71s2.35-28.206 30.556-37.607c3.319-1.106 6.408-1.594 9.279-1.594 21.527.002 30.679 27.449 30.679 27.449s2.35-39.958 32.906-44.659a18.35 18.35 0 0 1 2.836-.218m0-2h-.006c-1.04 0-2.095.081-3.136.241-13.22 2.034-23.405 10.782-29.454 25.3-2.156 5.175-3.423 10.18-4.159 14.03a58.16 58.16 0 0 0-4.637-7.592c-6.906-9.519-15.561-14.55-25.031-14.551-3.199 0-6.534.571-9.912 1.697-15.22 5.073-23.089 15.488-27.011 23.332a52.079 52.079 0 0 0-3.29 8.31c-1.64-4.58-4.205-10.799-7.875-17.222-9.544-16.701-22.035-26.593-36.123-28.606a33.1 33.1 0 0 0-4.668-.336c-13.573 0-26.285 8.82-36.762 25.506a2 2 0 0 0-.306 1.063v160.164a2.001 2.001 0 0 0 2.331 1.972l300.355-50.441a2 2 0 0 0 1.652-2.228c-.024-.183-2.419-18.548-7.091-37.823-6.384-26.333-13.854-41.802-22.203-45.977-3.476-1.738-7.052-2.619-10.628-2.62-6.107 0-12.347 2.618-18.049 7.571a43.84 43.84 0 0 0-4.341 4.353c-4.684-14.542-23.172-66.136-49.656-66.143z"/><path d="M208.549 2726.298c.037-.145 3.731-14.665 8.313-29.672 9.353-30.638 13.152-33.379 14.401-34.279 2.561-1.849 5.785-2.785 9.583-2.785 6.77 0 13.785 3.097 16.947 6.01 2.932 2.701 10.514 21.555 22.535 56.036.361 1.034.584 1.677.642 1.831l.483 1.295-73.233 2.862.329-1.298z" style="fill:#b6a0e0"/><path d="M240.846 2660.562c6.413 0 13.151 2.873 16.269 5.745 4.701 4.331 22.329 55.906 22.917 57.48l-70.514 2.756s14.69-57.874 22.329-63.386c2.573-1.855 5.744-2.595 8.999-2.595m0-2c-4.012 0-7.434 1-10.168 2.974-2.284 1.648-6.3 7.048-14.772 34.798-4.588 15.029-8.289 29.573-8.326 29.718l-.659 2.595 2.675-.104 70.514-2.756 2.762-.108-.966-2.59c-.057-.152-.277-.785-.633-1.806-18.199-52.206-21.664-55.397-22.803-56.447-3.384-3.118-10.525-6.274-17.624-6.274z"/><path d="m278.86 2717.884-12.836.628c-1.098-12.797-4.578-38.444-15.178-51.421-13.277-16.231-32.618 21.101-33.89 53.824l-10.373.511c-3.533-34.257 28.201-80.315 49.363-62.604 21.147 17.72 22.914 59.062 22.914 59.062z" style="fill:#fff;stroke:#000;stroke-width:2;stroke-linecap:round;strokeLinejoin:round;stroke-miterlimit:10"/><path d="M248.889 2654.89a268.896 268.896 0 0 0-4.512-1.774c-10.469-4.012-22.474-.37-28.633 8.997" style="fill:none;stroke:#000;stroke-width:2;stroke-miterlimit:10"/><path d="M-9.134 2797.911a1 1 0 0 1-1-1v-68.899a1 1 0 0 1 .958-.999c75.153-3.207 147.324-6.06 214.507-8.478 40.52-1.457 73.825-2.596 104.814-3.583 161.029-5.129 296.758-7.729 403.417-7.729 124.693 0 282.067 3.539 467.751 10.518 38.313 1.434 78.947 3.061 120.77 4.836a1 1 0 0 1 .958.999v73.336a1 1 0 0 1-1 1H-9.134z" style="fill:#e2f2a5"/><path d="M713.561 2708.223c135.392 0 297.836 4.132 467.715 10.517 39.923 1.494 80.268 3.117 120.764 4.835v73.335H-9.134v-68.899c72.164-3.078 144.111-5.943 214.5-8.477 35.369-1.271 70.378-2.485 104.811-3.583 149.665-4.766 288.728-7.728 403.384-7.728m0-2c-106.683 0-242.422 2.601-403.448 7.73-30.981.988-64.288 2.126-104.819 3.583-67.071 2.415-139.244 5.267-214.514 8.478a2 2 0 0 0-1.915 1.998v68.899a2 2 0 0 0 2 2H1302.04a2 2 0 0 0 2-2v-73.335a1.999 1.999 0 0 0-1.915-1.998c-41.866-1.777-82.5-3.404-120.774-4.836-185.683-6.98-343.07-10.519-467.79-10.519z"/><path d="M32.685 2796.911h148.573c3.684-3.249 5.323-6.363 5.099-9.336 44.834-4.508 156.892-9.916 382.856 9.336h732.825v-4.368c-73.624-7.343-146.975-13.339-219.005-18.201 73.793-14.053 147.465-25.636 219.005-33.664v-17.103c-40.495-1.719-80.84-3.341-120.764-4.835-74.805 6.674-200.748 19.762-349.549 42.615-360.384-13.247-646.989-1.748-699.295.606-38.274-8.554-91.527-15.076-141.567-19.826v15.535c13.941 1.575 26.186 3.153 35.802 4.695 45.097 7.236 43.44 24.399 6.02 34.546z" style="fill:#fff8e6"/></svg>