<svg xmlns="http://www.w3.org/2000/svg" xml:space="preserve" style="enable-background:new 0 0 80 80" viewBox="0 0 80 80"><path d="M59.455 21.451a48.669 48.669 0 0 0-12.22-3.804 35.997 35.997 0 0 0-1.566 3.22 45.195 45.195 0 0 0-13.541 0 33.602 33.602 0 0 0-1.584-3.22 48.496 48.496 0 0 0-12.225 3.813c-7.736 11.575-9.828 22.866-8.78 33.994 5.125 3.79 10.096 6.098 14.983 7.604a36.388 36.388 0 0 0 3.209-5.235 31.687 31.687 0 0 1-5.056-2.435c.426-.311.84-.636 1.243-.975 9.746 4.516 20.334 4.516 29.961 0 .403.339.819.664 1.236.975a31.277 31.277 0 0 1-5.063 2.44c.929 1.838 2 3.594 3.211 5.235 4.889-1.506 9.865-3.809 14.994-7.608 1.231-12.903-2.1-24.086-8.802-34.004zM29.061 48.608c-2.927 0-5.328-2.703-5.328-5.999 0-3.294 2.348-6.006 5.328-6.006 2.973 0 5.374 2.708 5.322 6.006.005 3.296-2.348 5.999-5.322 5.999zm19.676 0c-2.927 0-5.326-2.703-5.326-5.999 0-3.294 2.351-6.006 5.326-6.006s5.374 2.708 5.322 6.006c-.001 3.296-2.347 5.999-5.322 5.999z"/><path d="M59.455 21.451a48.669 48.669 0 0 0-12.22-3.804 35.997 35.997 0 0 0-1.566 3.22 45.195 45.195 0 0 0-13.541 0 33.602 33.602 0 0 0-1.584-3.22 48.496 48.496 0 0 0-12.225 3.813c-7.736 11.575-9.828 22.866-8.78 33.994 5.125 3.79 10.096 6.098 14.983 7.604a36.388 36.388 0 0 0 3.209-5.235 31.687 31.687 0 0 1-5.056-2.435c.426-.311.84-.636 1.243-.975 9.746 4.516 20.334 4.516 29.961 0 .403.339.819.664 1.236.975a31.277 31.277 0 0 1-5.063 2.44c.929 1.838 2 3.594 3.211 5.235 4.889-1.506 9.865-3.809 14.994-7.608 1.231-12.903-2.1-24.086-8.802-34.004zM29.061 48.608c-2.927 0-5.328-2.703-5.328-5.999 0-3.294 2.348-6.006 5.328-6.006 2.973 0 5.374 2.708 5.322 6.006.005 3.296-2.348 5.999-5.322 5.999zm19.676 0c-2.927 0-5.326-2.703-5.326-5.999 0-3.294 2.351-6.006 5.326-6.006s5.374 2.708 5.322 6.006c-.001 3.296-2.347 5.999-5.322 5.999z"/></svg>