<svg xmlns="http://www.w3.org/2000/svg" xml:space="preserve" style="enable-background:new 0 0 80 80" viewBox="0 0 80 80"><path d="M46.251 40.35c0 4.051-3.287 7.336-7.34 7.336s-7.338-3.285-7.338-7.336c0-4.049 3.285-7.334 7.338-7.334s7.34 3.285 7.34 7.334z"/><path d="M56.834 31.458c-.098-2.145-.458-3.31-.76-4.086-.398-1.025-.877-1.76-1.648-2.529-.769-.771-1.501-1.247-2.529-1.646-.776-.302-1.941-.659-4.088-.758-2.323-.105-3.019-.126-8.899-.126-.735 0-1.387-.002-1.975 0v-.007c-4.104.005-4.889.032-6.922.124-2.147.098-3.312.458-4.088.76-1.028.398-1.762.877-2.534 1.646-.769.771-1.247 1.504-1.646 2.532-.302.776-.661 1.939-.76 4.083-.105 2.321-.126 3.014-.126 8.89 0 5.876.021 6.571.126 8.892.098 2.145.458 3.31.76 4.083a6.812 6.812 0 0 0 1.646 2.529c.771.769 1.506 1.247 2.534 1.646.776.3 1.941.659 4.088.758 2.321.105 3.019.128 8.897.128 5.88 0 6.578-.023 8.899-.128 2.147-.096 3.312-.455 4.088-.758 1.028-.398 1.76-.874 2.529-1.646.771-.769 1.25-1.502 1.648-2.527.302-.776.661-1.939.76-4.086.105-2.319.128-3.014.128-8.888.001-5.869-.022-6.567-.128-8.886zM38.91 51.648c-6.244 0-11.307-5.056-11.307-11.298 0-6.239 5.063-11.298 11.307-11.298 6.246 0 11.307 5.058 11.307 11.298 0 6.242-5.061 11.298-11.307 11.298zm11.756-20.401a2.64 2.64 0 1 1 0-5.28v-.002a2.642 2.642 0 0 1 0 5.282z"/><path d="M68.453 23.58c-.188-2.378-.595-3.978-1.424-5.67-.682-1.382-1.437-2.417-2.536-3.472-1.959-1.872-4.353-3.01-7.21-3.422-1.382-.201-1.657-.261-8.737-.272h-9.638c-12.362 0-15.976.014-16.679.071-2.538.211-4.115.611-5.837 1.467a11.82 11.82 0 0 0-3.401 2.49c-1.879 1.952-3.019 4.351-3.431 7.205-.199 1.385-.259 1.666-.27 8.741-.005 2.358 0 5.461 0 9.625 0 12.355.014 15.97.073 16.67.204 2.47.593 4.024 1.412 5.722 1.566 3.252 4.559 5.695 8.084 6.606 1.22.316 2.568.488 4.299.57.735.032 8.208.055 15.688.055 7.478 0 14.958-.009 15.672-.046 2.005-.094 3.168-.25 4.454-.584a12.395 12.395 0 0 0 8.084-6.619c.806-1.657 1.213-3.271 1.396-5.61.041-.51.057-8.647.057-16.771.001-8.127-.017-16.246-.056-16.756zm-7.657 25.841c-.112 2.342-.483 3.941-1.023 5.34-.565 1.449-1.318 2.676-2.543 3.898-1.222 1.225-2.449 1.978-3.898 2.541-1.401.542-3.003.913-5.347 1.021-2.348.108-3.097.133-9.078.133-5.979 0-6.729-.025-9.078-.133-2.344-.108-3.944-.478-5.345-1.021-1.449-.563-2.676-1.316-3.9-2.541a10.708 10.708 0 0 1-2.538-3.898c-.545-1.399-.916-2.996-1.023-5.34-.108-2.346-.135-3.095-.135-9.071 0-5.974.027-6.725.133-9.073.105-2.342.478-3.939 1.023-5.34.565-1.447 1.318-2.673 2.543-3.898 1.222-1.222 2.451-1.973 3.9-2.536 1.401-.545 3.001-.916 5.345-1.023 2.348-.105 3.099-.133 9.075-.133 5.979 0 6.727.027 9.075.133 2.344.108 3.944.478 5.349 1.023a10.779 10.779 0 0 1 3.898 2.536c1.225 1.225 1.978 2.451 2.543 3.898.54 1.401.911 2.998 1.023 5.342.105 2.346.133 3.097.133 9.071.001 5.977-.026 6.725-.132 9.071z"/></svg>