<svg xmlns="http://www.w3.org/2000/svg" xml:space="preserve" style="enable-background:new 0 0 80 80" viewBox="0 0 80 80"><path d="M35.566 17.236c0-.386-.007-.707.001-1.027.027-1.018-.036-2.05.112-3.05.219-1.477 1.731-2.542 3.21-2.402 1.543.146 2.784 1.465 2.794 2.991.01 1.598.012 3.196-.005 4.794-.003.328.144.422.407.569.572.322 1.139.683 1.626 1.12 1.639 1.47 3.301 2.922 4.842 4.491 2.025 2.06 3.803 4.335 5.14 6.913 1.094 2.11 1.829 4.329 1.66 6.754-.117 1.683-.729 3.217-1.51 4.686-1.123 2.114-2.587 3.986-4.209 5.733a62.19 62.19 0 0 1-2.793 2.786c-.201.19-.541.318-.82.325a95.566 95.566 0 0 1-3.861.008c-.368-.005-.485.112-.481.481a238 238 0 0 1 0 4.927c-.004.374.122.48.485.477 1.82-.015 3.64.008 5.459-.013 1.303-.015 2.478-.448 3.436-1.329 1.153-1.06 2.243-2.188 3.38-3.266.236-.224.537-.43.844-.519 5.168-1.508 10.342-2.996 15.515-4.487.791-.228.983-.081.983.746 0 .932-.026 1.865.01 2.796.019.498-.185.746-.62.937a21.828 21.828 0 0 0-4.291 2.47c-1.031.766-1.778 1.762-2.464 2.819-1.406 2.168-2.778 4.36-4.227 6.499-1.124 1.659-2.454 3.148-4.17 4.236-1.301.825-2.715 1.266-4.27 1.265-9.425-.007-18.85.016-28.274-.013-3.813-.012-7.249-1.254-10.29-3.534-3.318-2.488-5.502-5.766-6.58-9.771a17.76 17.76 0 0 1-.601-4.728c.003-.51.183-.687.697-.687h15.136c.569 0 .775.213.73.793-.215 2.743 1.764 5.385 4.858 5.762.496.061 1.005.015 1.508.015h6.037c.596 0 .596-.001.597-.616v-4.661c0-.592-.001-.593-.575-.593l-6.525-.001c-.148 0-.299.01-.443-.016-.426-.078-.617-.45-.407-.829.164-.296.373-.567.562-.85 1.725-2.584 3.31-5.246 4.516-8.12.962-2.291 1.327-4.68 1.174-7.147-.202-3.249-1.003-6.371-2.062-9.436-1.131-3.274-2.542-6.424-4.183-9.472-.049-.091-.123-.179-.138-.276-.027-.163-.082-.383-.003-.483.078-.099.321-.139.467-.103.859.211 1.711.45 2.565.681 1.566.424 3.131.85 4.697 1.275.081.022.166.038.354.08z"/><path d="M17.484 45.363h-6.655c-.133 0-.267.007-.399-.007-.519-.056-.725-.424-.459-.871.354-.596.739-1.174 1.112-1.759l12.764-19.964c.032-.05.06-.102.095-.15.35-.488.806-.459 1.05.089 1.068 2.403 1.989 4.86 2.661 7.406.49 1.857.839 3.734.9 5.662.058 1.837-.426 3.539-1.229 5.156-.656 1.321-1.392 2.602-2.079 3.908-.214.407-.525.539-.973.536-2.262-.014-4.525-.006-6.788-.006z"/></svg>