<svg xmlns="http://www.w3.org/2000/svg" xml:space="preserve" style="enable-background:new 0 0 80 80" viewBox="0 0 80 80"><path d="M63.879 29.029c.036.522.036 1.044.036 1.571 0 16.055-12.222 34.571-34.571 34.571v-.01a34.393 34.393 0 0 1-18.625-5.447 24.398 24.398 0 0 0 17.982-5.035 12.166 12.166 0 0 1-11.351-8.438c1.821.351 3.698.279 5.486-.209a12.152 12.152 0 0 1-9.747-11.91v-.154a12.073 12.073 0 0 0 5.514 1.521c-5.339-3.568-6.984-10.67-3.761-16.223A34.488 34.488 0 0 0 39.883 31.96a12.16 12.16 0 0 1 3.515-11.609c4.894-4.6 12.59-4.364 17.191.527a24.39 24.39 0 0 0 7.716-2.95 12.193 12.193 0 0 1-5.341 6.72 24.171 24.171 0 0 0 6.977-1.913 24.647 24.647 0 0 1-6.062 6.294z"/></svg>